<svg width="381" height="325" viewBox="0 0 381 325" fill="none" xmlns="http://www.w3.org/2000/svg">
<rect x="51" width="15" height="65" rx="7.5" fill="white"/>
<rect x="271" width="18" height="65" rx="8.5" fill="white"/>
<rect x="51" width="18" height="65" rx="8.5" fill="white"/>
<rect x="329" y="93" width="20" height="324" rx="8.5" transform="rotate(90 329 93)" fill="white"/>
<path d="M293.352 27L294.314 27.0117H294.327L294.34 27.0127C315.562 27.5461 332.627 44.7824 332.627 66V187.956C359.55 198.164 379 223.135 379 253C379 292.242 345.458 323 305.425 323C291.651 323 278.66 319.362 267.538 313H41.2754L40.3125 312.988H40.2998L40.2871 312.987C19.4011 312.462 2.54283 295.761 2.0127 275.006L2.01172 274.993V274.979L2 274.024V66C2 44.7824 19.0646 27.5461 40.2871 27.0127L40.2998 27.0117H40.3125L41.2754 27H293.352ZM305.425 197C272.455 197 245.93 222.181 245.93 253C245.93 270.44 254.403 286.047 267.745 296.337C271.195 298.37 276.862 301.408 282.729 303.965C288.552 306.503 294.276 308.431 298.206 308.627L298.58 308.64L298.663 308.642L298.746 308.65C300.938 308.881 303.167 309 305.425 309C338.394 309 364.919 283.819 364.919 253C364.919 230.32 350.578 210.717 329.846 201.92L329.833 201.915L329.82 201.909C327.53 200.9 321.814 198.742 317.245 198.104L317.198 198.098L317.151 198.089C313.361 197.376 309.441 197 305.425 197ZM41.2998 44C29.2278 44.0001 19.4298 53.5457 19.1133 65.4062L19.1055 66.0254V274L19.1123 274.567C19.4158 286.441 29.2187 296 41.2998 296H247.35C237.67 284.204 231.849 269.325 231.849 253C231.849 213.758 265.391 183 305.425 183C308.844 183 312.215 183.224 315.521 183.658V66C315.521 54.0545 305.908 44.3084 293.9 44.0068L293.327 44H41.2998Z" fill="white" stroke="white" stroke-width="4"/>
<rect x="296" y="213" width="14" height="58" rx="7" fill="white" stroke="white" stroke-width="2"/>
<rect x="336" y="258" width="14" height="40" rx="7" transform="rotate(90 336 258)" fill="white" stroke="white" stroke-width="2"/>
<path d="M157.5 253H176.074C178.283 253 180.074 251.209 180.074 249V224C180.074 221.791 181.865 220 184.074 220H213.5C215.709 220 217.5 218.209 217.5 216V191C217.5 188.791 215.709 187 213.5 187H184.074C181.865 187 180.074 185.209 180.074 183V156C180.074 153.791 178.283 152 176.074 152H157.5" stroke="white" stroke-width="14"/>
<path d="M175 253H156.426C154.217 253 152.426 251.209 152.426 249V224C152.426 221.791 150.635 220 148.426 220H119C116.791 220 115 218.209 115 216V191C115 188.791 116.791 187 119 187H148.426C150.635 187 152.426 185.209 152.426 183V156C152.426 153.791 154.217 152 156.426 152H175" stroke="white" stroke-width="14"/>
</svg>
